<?xml version="1.0" encoding="UTF-8"?>
<svg xmlns="http://www.w3.org/2000/svg" xmlns:xlink="http://www.w3.org/1999/xlink" width="314pt" height="41pt" viewBox="0 0 314 41" version="1.1">
<g id="surface1">
<path style=" stroke:none;fill-rule:nonzero;fill:rgb(16.25061%,35.594177%,64.001465%);fill-opacity:1;" d="M 70.988281 23.503906 L 63.089844 23.503906 L 63.089844 33.027344 L 70.988281 33.027344 C 74.421875 33.027344 76.050781 30.851562 76.050781 28.238281 C 76.050781 25.621094 74.421875 23.503906 70.988281 23.503906 Z M 70.5 7.765625 L 63.089844 7.765625 L 63.089844 16.695312 L 70.5 16.695312 C 73.714844 16.695312 75.511719 14.898438 75.511719 12.234375 C 75.511719 9.570312 73.714844 7.765625 70.5 7.765625 Z M 71.753906 39.78125 L 55.527344 39.78125 L 55.527344 1.019531 L 71.097656 1.019531 C 78.667969 1.019531 83.074219 5.265625 83.074219 11.90625 C 83.074219 16.207031 80.246094 18.980469 78.285156 19.902344 C 80.625 20.992188 83.613281 23.449219 83.613281 28.617188 C 83.613281 35.859375 78.667969 39.78125 71.753906 39.78125 "/>
<path style=" stroke:none;fill-rule:nonzero;fill:rgb(16.25061%,35.594177%,64.001465%);fill-opacity:1;" d="M 88.359375 39.78125 L 88.359375 1.019531 L 113.890625 1.019531 L 113.890625 7.765625 L 95.921875 7.765625 L 95.921875 16.859375 L 111.222656 16.859375 L 111.222656 23.609375 L 95.921875 23.609375 L 95.921875 33.027344 L 113.890625 33.027344 L 113.890625 39.78125 L 88.359375 39.78125 "/>
<path style=" stroke:none;fill-rule:nonzero;fill:rgb(16.25061%,35.594177%,64.001465%);fill-opacity:1;" d="M 131.699219 40.105469 C 125.824219 40.105469 121.363281 38.847656 117.550781 34.984375 L 122.453125 30.09375 C 124.898438 32.535156 128.214844 33.351562 131.816406 33.351562 C 136.273438 33.351562 138.667969 31.667969 138.667969 28.566406 C 138.667969 27.199219 138.285156 26.054688 137.472656 25.292969 C 136.707031 24.59375 135.84375 24.214844 134.050781 23.941406 L 129.359375 23.28125 C 126.046875 22.792969 123.597656 21.757812 121.851562 20.074219 C 119.996094 18.21875 119.074219 15.71875 119.074219 12.449219 C 119.074219 5.53125 124.191406 0.691406 132.578125 0.691406 C 137.914062 0.691406 141.773438 1.996094 145.09375 5.207031 L 140.3125 9.949219 C 137.855469 7.609375 134.917969 7.277344 132.355469 7.277344 C 128.332031 7.277344 126.371094 9.511719 126.371094 12.171875 C 126.371094 13.15625 126.699219 14.195312 127.515625 14.957031 C 128.277344 15.65625 129.527344 16.257812 131.105469 16.480469 L 135.679688 17.132812 C 139.21875 17.625 141.449219 18.601562 143.082031 20.125 C 145.148438 22.085938 146.082031 24.910156 146.082031 28.34375 C 146.082031 35.859375 139.8125 40.105469 131.699219 40.105469 "/>
<path style=" stroke:none;fill-rule:nonzero;fill:rgb(16.25061%,35.594177%,64.001465%);fill-opacity:1;" d="M 161.800781 40.105469 C 155.921875 40.105469 151.453125 38.847656 147.640625 34.984375 L 152.542969 30.09375 C 154.992188 32.535156 158.3125 33.351562 161.90625 33.351562 C 166.371094 33.351562 168.765625 31.667969 168.765625 28.566406 C 168.765625 27.199219 168.382812 26.054688 167.570312 25.292969 C 166.804688 24.59375 165.9375 24.214844 164.136719 23.941406 L 159.460938 23.28125 C 156.132812 22.792969 153.6875 21.757812 151.949219 20.074219 C 150.097656 18.21875 149.164062 15.71875 149.164062 12.449219 C 149.164062 5.53125 154.289062 0.691406 162.664062 0.691406 C 168.003906 0.691406 171.871094 1.996094 175.191406 5.207031 L 170.394531 9.949219 C 167.953125 7.609375 165.007812 7.277344 162.453125 7.277344 C 158.417969 7.277344 156.460938 9.511719 156.460938 12.171875 C 156.460938 13.15625 156.789062 14.195312 157.605469 14.957031 C 158.367188 15.65625 159.617188 16.257812 161.195312 16.480469 L 165.769531 17.132812 C 169.308594 17.625 171.542969 18.601562 173.175781 20.125 C 175.246094 22.085938 176.167969 24.910156 176.167969 28.34375 C 176.167969 35.859375 169.910156 40.105469 161.800781 40.105469 "/>
<path style=" stroke:none;fill-rule:nonzero;fill:rgb(16.25061%,35.594177%,64.001465%);fill-opacity:1;" d="M 196.832031 23.886719 L 196.832031 39.78125 L 189.3125 39.78125 L 189.3125 23.886719 L 177.667969 1.019531 L 185.882812 1.019531 L 193.125 16.644531 L 200.261719 1.019531 L 208.480469 1.019531 L 196.832031 23.886719 "/>
<path style=" stroke:none;fill-rule:nonzero;fill:rgb(16.25061%,35.594177%,64.001465%);fill-opacity:1;" d="M 238.394531 39.78125 L 232.726562 39.78125 L 219.9375 1.019531 L 227.773438 1.019531 L 235.566406 26.277344 L 243.351562 1.019531 L 251.242188 1.019531 L 238.394531 39.78125 "/>
<path style=" stroke:none;fill-rule:nonzero;fill:rgb(16.25061%,35.594177%,64.001465%);fill-opacity:1;" d="M 265.484375 40.105469 C 259.597656 40.105469 255.140625 38.847656 251.332031 34.984375 L 256.234375 30.09375 C 258.679688 32.535156 261.996094 33.351562 265.59375 33.351562 C 270.054688 33.351562 272.449219 31.667969 272.449219 28.566406 C 272.449219 27.199219 272.070312 26.054688 271.25 25.292969 C 270.488281 24.59375 269.625 24.214844 267.828125 23.941406 L 263.144531 23.28125 C 259.828125 22.792969 257.375 21.757812 255.632812 20.074219 C 253.777344 18.21875 252.855469 15.71875 252.855469 12.449219 C 252.855469 5.53125 257.972656 0.691406 266.359375 0.691406 C 271.695312 0.691406 275.554688 1.996094 278.875 5.207031 L 274.09375 9.949219 C 271.636719 7.609375 268.699219 7.277344 266.136719 7.277344 C 262.113281 7.277344 260.152344 9.511719 260.152344 12.171875 C 260.152344 13.15625 260.480469 14.195312 261.292969 14.957031 C 262.0625 15.65625 263.308594 16.257812 264.886719 16.480469 L 269.460938 17.132812 C 273 17.625 275.234375 18.601562 276.863281 20.125 C 278.929688 22.085938 279.859375 24.910156 279.859375 28.34375 C 279.859375 35.859375 273.59375 40.105469 265.484375 40.105469 "/>
<path style=" stroke:none;fill-rule:nonzero;fill:rgb(16.25061%,35.594177%,64.001465%);fill-opacity:1;" d="M 298.570312 7.765625 L 291.441406 7.765625 L 291.441406 18.007812 L 298.570312 18.007812 C 301.890625 18.007812 304.074219 15.878906 304.074219 12.882812 C 304.074219 9.894531 301.890625 7.765625 298.570312 7.765625 Z M 304.453125 39.78125 L 296.886719 24.320312 L 291.441406 24.320312 L 291.441406 39.78125 L 283.867188 39.78125 L 283.867188 1.019531 L 299.0625 1.019531 C 306.953125 1.019531 311.636719 6.410156 311.636719 12.882812 C 311.636719 18.328125 308.320312 21.703125 304.558594 23.070312 L 313.214844 39.78125 L 304.453125 39.78125 "/>
<path style=" stroke:none;fill-rule:nonzero;fill:rgb(66.770935%,83.538818%,11.779785%);fill-opacity:1;" d="M 34.058594 6.722656 L 34.054688 6.71875 C 33.34375 6.023438 32.414062 5.640625 31.441406 5.640625 C 30.4375 5.640625 29.503906 6.027344 28.820312 6.71875 C 27.375 8.164062 27.363281 10.523438 28.792969 11.972656 L 28.835938 11.992188 C 29.527344 12.675781 30.445312 13.054688 31.429688 13.054688 C 32.417969 13.054688 33.347656 12.671875 34.058594 11.972656 C 35.476562 10.527344 35.476562 8.171875 34.058594 6.722656 "/>
<path style=" stroke:none;fill-rule:nonzero;fill:rgb(66.770935%,83.538818%,11.779785%);fill-opacity:1;" d="M 20.316406 8.453125 C 18.292969 8.453125 16.636719 6.789062 16.621094 4.746094 C 16.636719 2.714844 18.304688 1.046875 20.335938 1.03125 C 21.324219 1.03125 22.253906 1.414062 22.953125 2.109375 C 23.65625 2.808594 24.039062 3.738281 24.039062 4.734375 C 24.039062 6.785156 22.367188 8.453125 20.316406 8.453125 "/>
<path style=" stroke:none;fill-rule:nonzero;fill:rgb(66.770935%,83.538818%,11.779785%);fill-opacity:1;" d="M 9.242188 13.054688 C 8.257812 13.054688 7.328125 12.671875 6.621094 11.976562 C 5.183594 10.53125 5.183594 8.171875 6.621094 6.722656 C 7.289062 6.035156 8.242188 5.640625 9.230469 5.640625 C 10.226562 5.640625 11.160156 6.027344 11.851562 6.722656 C 12.554688 7.421875 12.941406 8.359375 12.941406 9.351562 C 12.941406 10.34375 12.554688 11.277344 11.851562 11.976562 C 11.15625 12.671875 10.230469 13.054688 9.242188 13.054688 "/>
<path style=" stroke:none;fill-rule:nonzero;fill:rgb(66.770935%,83.538818%,11.779785%);fill-opacity:1;" d="M 4.671875 24.140625 L 4.640625 24.140625 C 2.601562 24.140625 0.9375 22.476562 0.9375 20.433594 C 0.949219 18.394531 2.613281 16.730469 4.644531 16.71875 C 5.632812 16.730469 6.558594 17.117188 7.257812 17.816406 C 7.949219 18.507812 8.34375 19.460938 8.34375 20.433594 C 8.34375 22.476562 6.695312 24.140625 4.671875 24.140625 "/>
<path style=" stroke:none;fill-rule:nonzero;fill:rgb(66.770935%,83.538818%,11.779785%);fill-opacity:1;" d="M 9.234375 35.242188 C 8.246094 35.242188 7.316406 34.859375 6.621094 34.160156 C 5.191406 32.707031 5.191406 30.34375 6.621094 28.902344 C 7.320312 28.210938 8.246094 27.835938 9.230469 27.835938 C 10.203125 27.835938 11.160156 28.230469 11.851562 28.921875 C 12.558594 29.632812 12.945312 30.570312 12.941406 31.566406 C 12.9375 32.550781 12.550781 33.472656 11.847656 34.164062 C 11.148438 34.859375 10.222656 35.242188 9.234375 35.242188 "/>
<path style=" stroke:none;fill-rule:nonzero;fill:rgb(66.770935%,83.538818%,11.779785%);fill-opacity:1;" d="M 31.4375 35.242188 C 30.445312 35.242188 29.519531 34.859375 28.820312 34.164062 C 28.109375 33.449219 27.722656 32.507812 27.726562 31.511719 C 27.734375 30.527344 28.125 29.609375 28.824219 28.921875 C 29.515625 28.21875 30.449219 27.835938 31.441406 27.835938 C 32.402344 27.835938 33.328125 28.21875 34.050781 28.917969 C 34.753906 29.609375 35.140625 30.527344 35.144531 31.511719 C 35.152344 32.503906 34.765625 33.449219 34.058594 34.160156 C 33.355469 34.859375 32.425781 35.242188 31.4375 35.242188 "/>
<path style=" stroke:none;fill-rule:nonzero;fill:rgb(66.770935%,83.538818%,11.779785%);fill-opacity:1;" d="M 20.339844 39.839844 C 18.296875 39.839844 16.636719 38.175781 16.636719 36.132812 C 16.636719 34.09375 18.285156 32.429688 20.316406 32.429688 C 21.332031 32.429688 22.261719 32.816406 22.957031 33.515625 C 23.648438 34.207031 24.03125 35.136719 24.039062 36.132812 C 24.046875 37.113281 23.671875 38.042969 22.976562 38.742188 C 22.277344 39.449219 21.339844 39.839844 20.339844 39.839844 "/>
<path style=" stroke:none;fill-rule:nonzero;fill:rgb(16.25061%,35.594177%,64.001465%);fill-opacity:1;" d="M 36.027344 24.15625 L 36.019531 24.15625 C 33.984375 24.140625 32.328125 22.488281 32.320312 20.472656 L 32.300781 20.429688 C 32.320312 18.390625 34 16.730469 36.042969 16.730469 C 37.03125 16.730469 37.960938 17.113281 38.65625 17.816406 C 39.332031 18.496094 39.71875 19.425781 39.746094 20.425781 L 39.738281 20.4375 L 39.746094 20.441406 C 39.71875 22.472656 38.050781 24.140625 36.027344 24.15625 "/>
</g>
</svg>
