<svg xmlns="http://www.w3.org/2000/svg" width="1920" height="1080" version="1.1"><defs><linearGradient id="gr0" x1="0%" x2="100%" y1="0%" y2="100%"><stop offset="0%" stop-color="rgb(0,124,181)"/><stop offset="100%" stop-color="rgb(104,179,210)"/></linearGradient></defs><polygon id="triangle36" points="511,315 658,291 603,433" style="fill: url(#gr0); stroke: rgb(0, 0, 0); stroke-width: 0;"/><defs><linearGradient id="gr1" x1="0%" x2="100%" y1="0%" y2="100%"><stop offset="0%" stop-color="rgb(112,190,223)"/><stop offset="100%" stop-color="rgb(2,139,199)"/></linearGradient></defs><polygon id="triangle36" points="323,611 410,802 539,754" style="fill: url(#gr1); stroke: rgb(0, 0, 0); stroke-width: 0;"/><defs><linearGradient id="gr2" x1="0%" x2="100%" y1="0%" y2="100%"><stop offset="0%" stop-color="rgb(240,248,251)"/><stop offset="100%" stop-color="rgb(87,190,225)"/></linearGradient></defs><polygon id="triangle36" points="323,611 410,802 269,811" style="fill: url(#gr2); stroke: rgb(0, 0, 0); stroke-width: 0;"/><defs><linearGradient id="gr3" x1="0%" x2="100%" y1="0%" y2="100%"><stop offset="0%" stop-color="rgb(0,151,210)"/><stop offset="100%" stop-color="rgb(0,164,221)"/></linearGradient></defs><polygon id="triangle36" points="-1,1075 14,843 245,921" style="fill: url(#gr3); stroke: rgb(0, 0, 0); stroke-width: 0;"/><defs><linearGradient id="gr4" x1="0%" x2="100%" y1="0%" y2="100%"><stop offset="0%" stop-color="rgb(0,162,221)"/><stop offset="100%" stop-color="rgb(0,173,225)"/></linearGradient></defs><polygon id="triangle36" points="14,843 269,811 245,921" style="fill: url(#gr4); stroke: rgb(0, 0, 0); stroke-width: 0;"/><defs><linearGradient id="gr5" x1="0%" x2="100%" y1="0%" y2="100%"><stop offset="0%" stop-color="rgb(0,175,226)"/><stop offset="100%" stop-color="rgb(84,201,234)"/></linearGradient></defs><polygon id="triangle36" points="245,921 269,811 342,895" style="fill: url(#gr5); stroke: rgb(0, 0, 0); stroke-width: 0;"/><defs><linearGradient id="gr6" x1="0%" x2="100%" y1="0%" y2="100%"><stop offset="0%" stop-color="rgb(127,215,239)"/><stop offset="100%" stop-color="rgb(171,216,235)"/></linearGradient></defs><polygon id="triangle36" points="269,811 410,802 342,895" style="fill: url(#gr6); stroke: rgb(0, 0, 0); stroke-width: 0;"/><defs><linearGradient id="gr7" x1="0%" x2="100%" y1="0%" y2="100%"><stop offset="0%" stop-color="rgb(0,157,213)"/><stop offset="100%" stop-color="rgb(55,189,230)"/></linearGradient></defs><polygon id="triangle36" points="-1,1075 245,921 495,1057" style="fill: url(#gr7); stroke: rgb(0, 0, 0); stroke-width: 0;"/><defs><linearGradient id="gr8" x1="0%" x2="100%" y1="0%" y2="100%"><stop offset="0%" stop-color="rgb(0,178,227)"/><stop offset="100%" stop-color="rgb(139,217,239)"/></linearGradient></defs><polygon id="triangle36" points="245,921 342,895 495,1057" style="fill: url(#gr8); stroke: rgb(0, 0, 0); stroke-width: 0;"/><defs><linearGradient id="gr9" x1="0%" x2="100%" y1="0%" y2="100%"><stop offset="0%" stop-color="rgb(12,161,215)"/><stop offset="100%" stop-color="rgb(101,200,232)"/></linearGradient></defs><polygon id="triangle36" points="-1,1075 495,1057 773,1077" style="fill: url(#gr9); stroke: rgb(0, 0, 0); stroke-width: 0;"/><defs><linearGradient id="gr10" x1="0%" x2="100%" y1="0%" y2="100%"><stop offset="0%" stop-color="rgb(211,237,246)"/><stop offset="100%" stop-color="rgb(190,227,241)"/></linearGradient></defs><polygon id="triangle36" points="495,1057 611,1027 773,1077" style="fill: url(#gr10); stroke: rgb(0, 0, 0); stroke-width: 0;"/><defs><linearGradient id="gr11" x1="0%" x2="100%" y1="0%" y2="100%"><stop offset="0%" stop-color="rgb(229,242,247)"/><stop offset="100%" stop-color="rgb(152,214,238)"/></linearGradient></defs><polygon id="triangle36" points="611,1027 713,899 773,1077" style="fill: url(#gr11); stroke: rgb(0, 0, 0); stroke-width: 0;"/><defs><linearGradient id="gr12" x1="0%" x2="100%" y1="0%" y2="100%"><stop offset="0%" stop-color="rgb(172,223,243)"/><stop offset="100%" stop-color="rgb(155,216,240)"/></linearGradient></defs><polygon id="triangle36" points="713,899 814,995 773,1077" style="fill: url(#gr12); stroke: rgb(0, 0, 0); stroke-width: 0;"/><defs><linearGradient id="gr13" x1="0%" x2="100%" y1="0%" y2="100%"><stop offset="0%" stop-color="rgb(44,182,229)"/><stop offset="100%" stop-color="rgb(33,175,224)"/></linearGradient></defs><polygon id="triangle36" points="713,899 814,995 1081,933" style="fill: url(#gr13); stroke: rgb(0, 0, 0); stroke-width: 0;"/><defs><linearGradient id="gr14" x1="0%" x2="100%" y1="0%" y2="100%"><stop offset="0%" stop-color="rgb(56,178,223)"/><stop offset="100%" stop-color="rgb(0,160,215)"/></linearGradient></defs><polygon id="triangle36" points="773,1077 1306,1059 1107,999" style="fill: url(#gr14); stroke: rgb(0, 0, 0); stroke-width: 0;"/><defs><linearGradient id="gr15" x1="0%" x2="100%" y1="0%" y2="100%"><stop offset="0%" stop-color="rgb(107,197,233)"/><stop offset="100%" stop-color="rgb(67,184,228)"/></linearGradient></defs><polygon id="triangle36" points="773,1077 814,995 1107,999" style="fill: url(#gr15); stroke: rgb(0, 0, 0); stroke-width: 0;"/><defs><linearGradient id="gr16" x1="0%" x2="100%" y1="0%" y2="100%"><stop offset="0%" stop-color="rgb(49,177,225)"/><stop offset="100%" stop-color="rgb(0,157,212)"/></linearGradient></defs><polygon id="triangle36" points="814,995 1081,933 1107,999" style="fill: url(#gr16); stroke: rgb(0, 0, 0); stroke-width: 0;"/><defs><linearGradient id="gr17" x1="0%" x2="100%" y1="0%" y2="100%"><stop offset="0%" stop-color="rgb(0,169,220)"/><stop offset="100%" stop-color="rgb(0,175,225)"/></linearGradient></defs><polygon id="triangle36" points="1306,1059 1529,918 1675,1041" style="fill: url(#gr17); stroke: rgb(0, 0, 0); stroke-width: 0;"/><defs><linearGradient id="gr18" x1="0%" x2="100%" y1="0%" y2="100%"><stop offset="0%" stop-color="rgb(0,171,222)"/><stop offset="100%" stop-color="rgb(0,180,229)"/></linearGradient></defs><polygon id="triangle36" points="1306,1059 1675,1041 1855,1063" style="fill: url(#gr18); stroke: rgb(0, 0, 0); stroke-width: 0;"/><defs><linearGradient id="gr19" x1="0%" x2="100%" y1="0%" y2="100%"><stop offset="0%" stop-color="rgb(56,181,223)"/><stop offset="100%" stop-color="rgb(0,171,222)"/></linearGradient></defs><polygon id="triangle36" points="773,1077 1306,1059 1855,1063" style="fill: url(#gr19); stroke: rgb(0, 0, 0); stroke-width: 0;"/><defs><linearGradient id="gr20" x1="0%" x2="100%" y1="0%" y2="100%"><stop offset="0%" stop-color="rgb(0,180,229)"/><stop offset="100%" stop-color="rgb(0,182,231)"/></linearGradient></defs><polygon id="triangle36" points="1675,1041 1769,925 1861,1030" style="fill: url(#gr20); stroke: rgb(0, 0, 0); stroke-width: 0;"/><defs><linearGradient id="gr21" x1="0%" x2="100%" y1="0%" y2="100%"><stop offset="0%" stop-color="rgb(0,180,229)"/><stop offset="100%" stop-color="rgb(0,183,231)"/></linearGradient></defs><polygon id="triangle36" points="1675,1041 1855,1063 1861,1030" style="fill: url(#gr21); stroke: rgb(0, 0, 0); stroke-width: 0;"/><defs><linearGradient id="gr22" x1="0%" x2="100%" y1="0%" y2="100%"><stop offset="0%" stop-color="rgb(0,175,225)"/><stop offset="100%" stop-color="rgb(0,177,227)"/></linearGradient></defs><polygon id="triangle36" points="1529,918 1675,1041 1591,875" style="fill: url(#gr22); stroke: rgb(0, 0, 0); stroke-width: 0;"/><defs><linearGradient id="gr23" x1="0%" x2="100%" y1="0%" y2="100%"><stop offset="0%" stop-color="rgb(0,179,228)"/><stop offset="100%" stop-color="rgb(0,178,228)"/></linearGradient></defs><polygon id="triangle36" points="1675,1041 1769,925 1591,875" style="fill: url(#gr23); stroke: rgb(0, 0, 0); stroke-width: 0;"/><defs><linearGradient id="gr24" x1="0%" x2="100%" y1="0%" y2="100%"><stop offset="0%" stop-color="rgb(0,166,219)"/><stop offset="100%" stop-color="rgb(0,168,220)"/></linearGradient></defs><polygon id="triangle36" points="1306,1059 1529,918 1309,907" style="fill: url(#gr24); stroke: rgb(0, 0, 0); stroke-width: 0;"/><defs><linearGradient id="gr25" x1="0%" x2="100%" y1="0%" y2="100%"><stop offset="0%" stop-color="rgb(0,172,223)"/><stop offset="100%" stop-color="rgb(0,171,222)"/></linearGradient></defs><polygon id="triangle36" points="1529,918 1591,875 1309,907" style="fill: url(#gr25); stroke: rgb(0, 0, 0); stroke-width: 0;"/><defs><linearGradient id="gr26" x1="0%" x2="100%" y1="0%" y2="100%"><stop offset="0%" stop-color="rgb(0,157,211)"/><stop offset="100%" stop-color="rgb(0,160,213)"/></linearGradient></defs><polygon id="triangle36" points="1081,933 1107,999 1262,1009" style="fill: url(#gr26); stroke: rgb(0, 0, 0); stroke-width: 0;"/><defs><linearGradient id="gr27" x1="0%" x2="100%" y1="0%" y2="100%"><stop offset="0%" stop-color="rgb(0,158,212)"/><stop offset="100%" stop-color="rgb(0,163,215)"/></linearGradient></defs><polygon id="triangle36" points="1081,933 1309,907 1262,1009" style="fill: url(#gr27); stroke: rgb(0, 0, 0); stroke-width: 0;"/><defs><linearGradient id="gr28" x1="0%" x2="100%" y1="0%" y2="100%"><stop offset="0%" stop-color="rgb(0,159,212)"/><stop offset="100%" stop-color="rgb(0,164,215)"/></linearGradient></defs><polygon id="triangle36" points="1107,999 1306,1059 1262,1009" style="fill: url(#gr28); stroke: rgb(0, 0, 0); stroke-width: 0;"/><defs><linearGradient id="gr29" x1="0%" x2="100%" y1="0%" y2="100%"><stop offset="0%" stop-color="rgb(0,165,217)"/><stop offset="100%" stop-color="rgb(0,165,217)"/></linearGradient></defs><polygon id="triangle36" points="1306,1059 1309,907 1262,1009" style="fill: url(#gr29); stroke: rgb(0, 0, 0); stroke-width: 0;"/><defs><linearGradient id="gr30" x1="0%" x2="100%" y1="0%" y2="100%"><stop offset="0%" stop-color="rgb(0,181,231)"/><stop offset="100%" stop-color="rgb(0,183,232)"/></linearGradient></defs><polygon id="triangle36" points="1769,925 1861,1030 1874,1027" style="fill: url(#gr30); stroke: rgb(0, 0, 0); stroke-width: 0;"/><defs><linearGradient id="gr31" x1="0%" x2="100%" y1="0%" y2="100%"><stop offset="0%" stop-color="rgb(0,184,232)"/><stop offset="100%" stop-color="rgb(0,184,232)"/></linearGradient></defs><polygon id="triangle36" points="1855,1063 1861,1030 1874,1027" style="fill: url(#gr31); stroke: rgb(0, 0, 0); stroke-width: 0;"/><defs><linearGradient id="gr32" x1="0%" x2="100%" y1="0%" y2="100%"><stop offset="0%" stop-color="rgb(0,177,227)"/><stop offset="100%" stop-color="rgb(0,180,230)"/></linearGradient></defs><polygon id="triangle36" points="1591,875 1769,925 1809,542" style="fill: url(#gr32); stroke: rgb(0, 0, 0); stroke-width: 0;"/><defs><linearGradient id="gr33" x1="0%" x2="100%" y1="0%" y2="100%"><stop offset="0%" stop-color="rgb(0,181,231)"/><stop offset="100%" stop-color="rgb(0,182,232)"/></linearGradient></defs><polygon id="triangle36" points="1769,925 1874,1027 1809,542" style="fill: url(#gr33); stroke: rgb(0, 0, 0); stroke-width: 0;"/><defs><linearGradient id="gr34" x1="0%" x2="100%" y1="0%" y2="100%"><stop offset="0%" stop-color="rgb(0,157,211)"/><stop offset="100%" stop-color="rgb(0,159,212)"/></linearGradient></defs><polygon id="triangle36" points="1081,933 1309,907 1043,570" style="fill: url(#gr34); stroke: rgb(0, 0, 0); stroke-width: 0;"/><defs><linearGradient id="gr35" x1="0%" x2="100%" y1="0%" y2="100%"><stop offset="0%" stop-color="rgb(44,170,218)"/><stop offset="100%" stop-color="rgb(0,153,207)"/></linearGradient></defs><polygon id="triangle36" points="713,899 1081,933 1043,570" style="fill: url(#gr35); stroke: rgb(0, 0, 0); stroke-width: 0;"/><defs><linearGradient id="gr36" x1="0%" x2="100%" y1="0%" y2="100%"><stop offset="0%" stop-color="rgb(0,161,220)"/><stop offset="100%" stop-color="rgb(0,171,223)"/></linearGradient></defs><polygon id="triangle36" points="14,843 269,811 198,690" style="fill: url(#gr36); stroke: rgb(0, 0, 0); stroke-width: 0;"/><defs><linearGradient id="gr37" x1="0%" x2="100%" y1="0%" y2="100%"><stop offset="0%" stop-color="rgb(127,215,239)"/><stop offset="100%" stop-color="rgb(160,222,241)"/></linearGradient></defs><polygon id="triangle36" points="269,811 323,611 198,690" style="fill: url(#gr37); stroke: rgb(0, 0, 0); stroke-width: 0;"/><defs><linearGradient id="gr38" x1="0%" x2="100%" y1="0%" y2="100%"><stop offset="0%" stop-color="rgb(0,160,220)"/><stop offset="100%" stop-color="rgb(85,197,233)"/></linearGradient></defs><polygon id="triangle36" points="14,843 198,690 177,579" style="fill: url(#gr38); stroke: rgb(0, 0, 0); stroke-width: 0;"/><defs><linearGradient id="gr39" x1="0%" x2="100%" y1="0%" y2="100%"><stop offset="0%" stop-color="rgb(127,213,238)"/><stop offset="100%" stop-color="rgb(245,250,252)"/></linearGradient></defs><polygon id="triangle36" points="198,690 323,611 177,579" style="fill: url(#gr39); stroke: rgb(0, 0, 0); stroke-width: 0;"/><defs><linearGradient id="gr40" x1="0%" x2="100%" y1="0%" y2="100%"><stop offset="0%" stop-color="rgb(148,208,234)"/><stop offset="100%" stop-color="rgb(245,250,252)"/></linearGradient></defs><polygon id="triangle36" points="302,442 323,611 177,579" style="fill: url(#gr40); stroke: rgb(0, 0, 0); stroke-width: 0;"/><defs><linearGradient id="gr41" x1="0%" x2="100%" y1="0%" y2="100%"><stop offset="0%" stop-color="rgb(255,255,255)"/><stop offset="100%" stop-color="rgb(161,215,236)"/></linearGradient></defs><polygon id="triangle36" points="177,579 302,442 139,486" style="fill: url(#gr41); stroke: rgb(0, 0, 0); stroke-width: 0;"/><defs><linearGradient id="gr42" x1="0%" x2="100%" y1="0%" y2="100%"><stop offset="0%" stop-color="rgb(221,242,248)"/><stop offset="100%" stop-color="rgb(180,222,240)"/></linearGradient></defs><polygon id="triangle36" points="139,486 302,442 126,430" style="fill: url(#gr42); stroke: rgb(0, 0, 0); stroke-width: 0;"/><defs><linearGradient id="gr43" x1="0%" x2="100%" y1="0%" y2="100%"><stop offset="0%" stop-color="rgb(148,208,234)"/><stop offset="100%" stop-color="rgb(195,230,241)"/></linearGradient></defs><polygon id="triangle36" points="302,442 319,241 126,430" style="fill: url(#gr43); stroke: rgb(0, 0, 0); stroke-width: 0;"/><defs><linearGradient id="gr44" x1="0%" x2="100%" y1="0%" y2="100%"><stop offset="0%" stop-color="rgb(122,207,237)"/><stop offset="100%" stop-color="rgb(140,214,238)"/></linearGradient></defs><polygon id="triangle36" points="126,430 139,486 23,430" style="fill: url(#gr44); stroke: rgb(0, 0, 0); stroke-width: 0;"/><defs><linearGradient id="gr45" x1="0%" x2="100%" y1="0%" y2="100%"><stop offset="0%" stop-color="rgb(250,253,253)"/><stop offset="100%" stop-color="rgb(192,229,241)"/></linearGradient></defs><polygon id="triangle36" points="126,430 319,241 23,430" style="fill: url(#gr45); stroke: rgb(0, 0, 0); stroke-width: 0;"/><defs><linearGradient id="gr46" x1="0%" x2="100%" y1="0%" y2="100%"><stop offset="0%" stop-color="rgb(93,198,232)"/><stop offset="100%" stop-color="rgb(163,223,243)"/></linearGradient></defs><polygon id="triangle36" points="139,486 177,579 23,430" style="fill: url(#gr46); stroke: rgb(0, 0, 0); stroke-width: 0;"/><defs><linearGradient id="gr47" x1="0%" x2="100%" y1="0%" y2="100%"><stop offset="0%" stop-color="rgb(0,146,208)"/><stop offset="100%" stop-color="rgb(78,185,228)"/></linearGradient></defs><polygon id="triangle36" points="-1,1075 14,843 1,430" style="fill: url(#gr47); stroke: rgb(0, 0, 0); stroke-width: 0;"/><defs><linearGradient id="gr48" x1="0%" x2="100%" y1="0%" y2="100%"><stop offset="0%" stop-color="rgb(0,157,218)"/><stop offset="100%" stop-color="rgb(163,221,241)"/></linearGradient></defs><polygon id="triangle36" points="14,843 177,579 1,430" style="fill: url(#gr48); stroke: rgb(0, 0, 0); stroke-width: 0;"/><defs><linearGradient id="gr49" x1="0%" x2="100%" y1="0%" y2="100%"><stop offset="0%" stop-color="rgb(117,204,235)"/><stop offset="100%" stop-color="rgb(163,221,241)"/></linearGradient></defs><polygon id="triangle36" points="23,430 177,579 1,430" style="fill: url(#gr49); stroke: rgb(0, 0, 0); stroke-width: 0;"/><defs><linearGradient id="gr50" x1="0%" x2="100%" y1="0%" y2="100%"><stop offset="0%" stop-color="rgb(245,252,253)"/><stop offset="100%" stop-color="rgb(192,229,241)"/></linearGradient></defs><polygon id="triangle36" points="23,430 319,241 1,430" style="fill: url(#gr50); stroke: rgb(0, 0, 0); stroke-width: 0;"/><defs><linearGradient id="gr51" x1="0%" x2="100%" y1="0%" y2="100%"><stop offset="0%" stop-color="rgb(171,220,236)"/><stop offset="100%" stop-color="rgb(247,252,253)"/></linearGradient></defs><polygon id="triangle36" points="319,241 375,90 1,430" style="fill: url(#gr51); stroke: rgb(0, 0, 0); stroke-width: 0;"/><defs><linearGradient id="gr52" x1="0%" x2="100%" y1="0%" y2="100%"><stop offset="0%" stop-color="rgb(20,152,209)"/><stop offset="100%" stop-color="rgb(75,175,217)"/></linearGradient></defs><polygon id="triangle36" points="302,442 323,611 557,586" style="fill: url(#gr52); stroke: rgb(0, 0, 0); stroke-width: 0;"/><defs><linearGradient id="gr53" x1="0%" x2="100%" y1="0%" y2="100%"><stop offset="0%" stop-color="rgb(112,191,224)"/><stop offset="100%" stop-color="rgb(0,139,200)"/></linearGradient></defs><polygon id="triangle36" points="323,611 539,754 557,586" style="fill: url(#gr53); stroke: rgb(0, 0, 0); stroke-width: 0;"/><defs><linearGradient id="gr54" x1="0%" x2="100%" y1="0%" y2="100%"><stop offset="0%" stop-color="rgb(0,139,200)"/><stop offset="100%" stop-color="rgb(25,156,211)"/></linearGradient></defs><polygon id="triangle36" points="539,754 557,586 625,757" style="fill: url(#gr54); stroke: rgb(0, 0, 0); stroke-width: 0;"/><defs><linearGradient id="gr55" x1="0%" x2="100%" y1="0%" y2="100%"><stop offset="0%" stop-color="rgb(44,173,223)"/><stop offset="100%" stop-color="rgb(25,166,218)"/></linearGradient></defs><polygon id="triangle36" points="713,899 1043,570 625,757" style="fill: url(#gr55); stroke: rgb(0, 0, 0); stroke-width: 0;"/><defs><linearGradient id="gr56" x1="0%" x2="100%" y1="0%" y2="100%"><stop offset="0%" stop-color="rgb(253,254,254)"/><stop offset="100%" stop-color="rgb(146,205,229)"/></linearGradient></defs><polygon id="triangle36" points="342,895 410,802 499,929" style="fill: url(#gr56); stroke: rgb(0, 0, 0); stroke-width: 0;"/><defs><linearGradient id="gr57" x1="0%" x2="100%" y1="0%" y2="100%"><stop offset="0%" stop-color="rgb(253,254,254)"/><stop offset="100%" stop-color="rgb(199,231,243)"/></linearGradient></defs><polygon id="triangle36" points="342,895 495,1057 499,929" style="fill: url(#gr57); stroke: rgb(0, 0, 0); stroke-width: 0;"/><defs><linearGradient id="gr58" x1="0%" x2="100%" y1="0%" y2="100%"><stop offset="0%" stop-color="rgb(4,140,198)"/><stop offset="100%" stop-color="rgb(58,166,212)"/></linearGradient></defs><polygon id="triangle36" points="410,802 539,754 499,929" style="fill: url(#gr58); stroke: rgb(0, 0, 0); stroke-width: 0;"/><defs><linearGradient id="gr59" x1="0%" x2="100%" y1="0%" y2="100%"><stop offset="0%" stop-color="rgb(211,237,246)"/><stop offset="100%" stop-color="rgb(211,235,243)"/></linearGradient></defs><polygon id="triangle36" points="495,1057 611,1027 499,929" style="fill: url(#gr59); stroke: rgb(0, 0, 0); stroke-width: 0;"/><defs><linearGradient id="gr60" x1="0%" x2="100%" y1="0%" y2="100%"><stop offset="0%" stop-color="rgb(0,139,200)"/><stop offset="100%" stop-color="rgb(84,183,222)"/></linearGradient></defs><polygon id="triangle36" points="539,754 625,757 499,929" style="fill: url(#gr60); stroke: rgb(0, 0, 0); stroke-width: 0;"/><defs><linearGradient id="gr61" x1="0%" x2="100%" y1="0%" y2="100%"><stop offset="0%" stop-color="rgb(101,184,220)"/><stop offset="100%" stop-color="rgb(88,184,222)"/></linearGradient></defs><polygon id="triangle36" points="611,1027 713,899 499,929" style="fill: url(#gr61); stroke: rgb(0, 0, 0); stroke-width: 0;"/><defs><linearGradient id="gr62" x1="0%" x2="100%" y1="0%" y2="100%"><stop offset="0%" stop-color="rgb(38,164,216)"/><stop offset="100%" stop-color="rgb(88,184,222)"/></linearGradient></defs><polygon id="triangle36" points="625,757 713,899 499,929" style="fill: url(#gr62); stroke: rgb(0, 0, 0); stroke-width: 0;"/><defs><linearGradient id="gr63" x1="0%" x2="100%" y1="0%" y2="100%"><stop offset="0%" stop-color="rgb(20,155,211)"/><stop offset="100%" stop-color="rgb(29,160,212)"/></linearGradient></defs><polygon id="triangle36" points="302,442 319,241 387,370" style="fill: url(#gr63); stroke: rgb(0, 0, 0); stroke-width: 0;"/><defs><linearGradient id="gr64" x1="0%" x2="100%" y1="0%" y2="100%"><stop offset="0%" stop-color="rgb(20,152,209)"/><stop offset="100%" stop-color="rgb(0,143,204)"/></linearGradient></defs><polygon id="triangle36" points="302,442 557,586 387,370" style="fill: url(#gr64); stroke: rgb(0, 0, 0); stroke-width: 0;"/><defs><linearGradient id="gr65" x1="0%" x2="100%" y1="0%" y2="100%"><stop offset="0%" stop-color="rgb(0,131,189)"/><stop offset="100%" stop-color="rgb(36,157,206)"/></linearGradient></defs><polygon id="triangle36" points="511,315 603,433 387,370" style="fill: url(#gr65); stroke: rgb(0, 0, 0); stroke-width: 0;"/><defs><linearGradient id="gr66" x1="0%" x2="100%" y1="0%" y2="100%"><stop offset="0%" stop-color="rgb(0,142,203)"/><stop offset="100%" stop-color="rgb(36,160,210)"/></linearGradient></defs><polygon id="triangle36" points="557,586 603,433 387,370" style="fill: url(#gr66); stroke: rgb(0, 0, 0); stroke-width: 0;"/><defs><linearGradient id="gr67" x1="0%" x2="100%" y1="0%" y2="100%"><stop offset="0%" stop-color="rgb(0,169,220)"/><stop offset="100%" stop-color="rgb(16,179,226)"/></linearGradient></defs><polygon id="triangle36" points="1309,907 1591,875 1663,435" style="fill: url(#gr67); stroke: rgb(0, 0, 0); stroke-width: 0;"/><defs><linearGradient id="gr68" x1="0%" x2="100%" y1="0%" y2="100%"><stop offset="0%" stop-color="rgb(0,177,227)"/><stop offset="100%" stop-color="rgb(16,182,229)"/></linearGradient></defs><polygon id="triangle36" points="1591,875 1809,542 1663,435" style="fill: url(#gr68); stroke: rgb(0, 0, 0); stroke-width: 0;"/><defs><linearGradient id="gr69" x1="0%" x2="100%" y1="0%" y2="100%"><stop offset="0%" stop-color="rgb(0,157,211)"/><stop offset="100%" stop-color="rgb(85,193,228)"/></linearGradient></defs><polygon id="triangle36" points="1043,570 1309,907 1146,427" style="fill: url(#gr69); stroke: rgb(0, 0, 0); stroke-width: 0;"/><defs><linearGradient id="gr70" x1="0%" x2="100%" y1="0%" y2="100%"><stop offset="0%" stop-color="rgb(0,166,218)"/><stop offset="100%" stop-color="rgb(101,203,234)"/></linearGradient></defs><polygon id="triangle36" points="1309,907 1663,435 1146,427" style="fill: url(#gr70); stroke: rgb(0, 0, 0); stroke-width: 0;"/><defs><linearGradient id="gr71" x1="0%" x2="100%" y1="0%" y2="100%"><stop offset="0%" stop-color="rgb(254,254,254)"/><stop offset="100%" stop-color="rgb(186,232,246)"/></linearGradient></defs><polygon id="triangle36" points="375,90 1663,435 1146,427" style="fill: url(#gr71); stroke: rgb(0, 0, 0); stroke-width: 0;"/><defs><linearGradient id="gr72" x1="0%" x2="100%" y1="0%" y2="100%"><stop offset="0%" stop-color="rgb(254,254,254)"/><stop offset="100%" stop-color="rgb(238,245,249)"/></linearGradient></defs><polygon id="triangle36" points="375,90 658,291 1146,427" style="fill: url(#gr72); stroke: rgb(0, 0, 0); stroke-width: 0;"/><defs><linearGradient id="gr73" x1="0%" x2="100%" y1="0%" y2="100%"><stop offset="0%" stop-color="rgb(0,153,207)"/><stop offset="100%" stop-color="rgb(163,217,237)"/></linearGradient></defs><polygon id="triangle36" points="1043,570 1146,427 873,430" style="fill: url(#gr73); stroke: rgb(0, 0, 0); stroke-width: 0;"/><defs><linearGradient id="gr74" x1="0%" x2="100%" y1="0%" y2="100%"><stop offset="0%" stop-color="rgb(0,138,196)"/><stop offset="100%" stop-color="rgb(114,190,219)"/></linearGradient></defs><polygon id="triangle36" points="557,586 603,433 873,430" style="fill: url(#gr74); stroke: rgb(0, 0, 0); stroke-width: 0;"/><defs><linearGradient id="gr75" x1="0%" x2="100%" y1="0%" y2="100%"><stop offset="0%" stop-color="rgb(0,145,205)"/><stop offset="100%" stop-color="rgb(104,195,231)"/></linearGradient></defs><polygon id="triangle36" points="557,586 625,757 873,430" style="fill: url(#gr75); stroke: rgb(0, 0, 0); stroke-width: 0;"/><defs><linearGradient id="gr76" x1="0%" x2="100%" y1="0%" y2="100%"><stop offset="0%" stop-color="rgb(181,221,235)"/><stop offset="100%" stop-color="rgb(231,242,247)"/></linearGradient></defs><polygon id="triangle36" points="603,433 658,291 873,430" style="fill: url(#gr76); stroke: rgb(0, 0, 0); stroke-width: 0;"/><defs><linearGradient id="gr77" x1="0%" x2="100%" y1="0%" y2="100%"><stop offset="0%" stop-color="rgb(38,168,216)"/><stop offset="100%" stop-color="rgb(78,182,220)"/></linearGradient></defs><polygon id="triangle36" points="625,757 1043,570 873,430" style="fill: url(#gr77); stroke: rgb(0, 0, 0); stroke-width: 0;"/><defs><linearGradient id="gr78" x1="0%" x2="100%" y1="0%" y2="100%"><stop offset="0%" stop-color="rgb(230,241,246)"/><stop offset="100%" stop-color="rgb(248,252,253)"/></linearGradient></defs><polygon id="triangle36" points="658,291 1146,427 873,430" style="fill: url(#gr78); stroke: rgb(0, 0, 0); stroke-width: 0;"/><defs><linearGradient id="gr79" x1="0%" x2="100%" y1="0%" y2="100%"><stop offset="0%" stop-color="rgb(43,170,214)"/><stop offset="100%" stop-color="rgb(84,186,222)"/></linearGradient></defs><polygon id="triangle36" points="319,241 375,90 407,199" style="fill: url(#gr79); stroke: rgb(0, 0, 0); stroke-width: 0;"/><defs><linearGradient id="gr80" x1="0%" x2="100%" y1="0%" y2="100%"><stop offset="0%" stop-color="rgb(43,166,211)"/><stop offset="100%" stop-color="rgb(0,148,205)"/></linearGradient></defs><polygon id="triangle36" points="319,241 387,370 407,199" style="fill: url(#gr80); stroke: rgb(0, 0, 0); stroke-width: 0;"/><defs><linearGradient id="gr81" x1="0%" x2="100%" y1="0%" y2="100%"><stop offset="0%" stop-color="rgb(126,202,229)"/><stop offset="100%" stop-color="rgb(68,175,215)"/></linearGradient></defs><polygon id="triangle36" points="375,90 658,291 407,199" style="fill: url(#gr81); stroke: rgb(0, 0, 0); stroke-width: 0;"/><defs><linearGradient id="gr82" x1="0%" x2="100%" y1="0%" y2="100%"><stop offset="0%" stop-color="rgb(0,138,197)"/><stop offset="100%" stop-color="rgb(0,134,191)"/></linearGradient></defs><polygon id="triangle36" points="387,370 511,315 407,199" style="fill: url(#gr82); stroke: rgb(0, 0, 0); stroke-width: 0;"/><defs><linearGradient id="gr83" x1="0%" x2="100%" y1="0%" y2="100%"><stop offset="0%" stop-color="rgb(0,130,187)"/><stop offset="100%" stop-color="rgb(68,170,210)"/></linearGradient></defs><polygon id="triangle36" points="511,315 658,291 407,199" style="fill: url(#gr83); stroke: rgb(0, 0, 0); stroke-width: 0;"/></svg>