<?xml version="1.0" encoding="UTF-8" standalone="no"?>
<svg
   xmlns:dc="http://purl.org/dc/elements/1.1/"
   xmlns:cc="http://creativecommons.org/ns#"
   xmlns:rdf="http://www.w3.org/1999/02/22-rdf-syntax-ns#"
   xmlns:svg="http://www.w3.org/2000/svg"
   xmlns="http://www.w3.org/2000/svg"
   xmlns:sodipodi="http://sodipodi.sourceforge.net/DTD/sodipodi-0.dtd"
   xmlns:inkscape="http://www.inkscape.org/namespaces/inkscape"
   inkscape:version="1.0alpha (50f63d05be, 2019-03-10)"
   sodipodi:docname="hzb_logo.svg"
   viewBox="0 0 183.772 62.750668"
   height="62.750668"
   width="183.772"
   xml:space="preserve"
   id="svg2"
   version="1.1">
  <metadata
     id="metadata8">
    <rdf:RDF>
      <cc:Work
         rdf:about="">
        <dc:format>image/svg+xml</dc:format>
        <dc:type
           rdf:resource="http://purl.org/dc/dcmitype/StillImage" />
        <dc:title></dc:title>
      </cc:Work>
    </rdf:RDF>
  </metadata>
  <defs
     id="defs6" />
  <sodipodi:namedview
     inkscape:current-layer="g10"
     inkscape:window-maximized="1"
     inkscape:window-y="30"
     inkscape:window-x="0"
     inkscape:cy="31.375334"
     inkscape:cx="91.886002"
     inkscape:zoom="5.7027185"
     showgrid="false"
     id="namedview4"
     inkscape:window-height="1017"
     inkscape:window-width="1920"
     inkscape:pageshadow="2"
     inkscape:pageopacity="0"
     guidetolerance="10"
     gridtolerance="10"
     objecttolerance="10"
     borderopacity="1"
     inkscape:document-rotation="0"
     bordercolor="#666666"
     pagecolor="#ffffff" />
  <g
     transform="matrix(1.3333333,0,0,-1.3333333,0,62.750667)"
     inkscape:label="hzb_logo_cmyk"
     inkscape:groupmode="layer"
     id="g10">
    <g
       id="g12">
      <path
         inkscape:connector-curvature="0"
         id="path14"
         style="fill:#00adef;fill-opacity:1;fill-rule:nonzero;stroke:none"
         d="m 81.156,22 v 4.176 h 1.555 V 16.09 h -1.555 v 4.625 H 76.801 V 16.09 h -1.559 v 10.086 h 1.559 V 22 h 4.355" />
      <path
         inkscape:connector-curvature="0"
         id="path16"
         style="fill:#00adef;fill-opacity:1;fill-rule:nonzero;stroke:none"
         d="m 89.445,20.458 c -0.152,1.21 -0.699,1.816 -1.633,1.816 -0.925,0 -1.484,-0.606 -1.726,-1.816 z m -3.406,-1.102 c 0.063,-1.453 0.731,-2.238 1.906,-2.238 0.727,0 1.196,0.285 1.512,0.937 l 1.348,-0.09 c -0.407,-1.347 -1.438,-2.074 -2.903,-2.074 -2.027,0 -3.359,1.469 -3.359,3.707 0,2.328 1.316,3.871 3.297,3.871 1.906,0 3.113,-1.469 3.113,-3.781 0,-0.059 0,-0.18 -0.012,-0.332 h -4.902" />
      <path
         inkscape:connector-curvature="0"
         id="path18"
         style="fill:#00adef;fill-opacity:1;fill-rule:nonzero;stroke:none"
         d="m 92.605,26.235 h 1.512 V 16.09 h -1.512 z" />
      <path
         inkscape:connector-curvature="0"
         id="path20"
         style="fill:#00adef;fill-opacity:1;fill-rule:nonzero;stroke:none"
         d="m 97.52,23.274 c 0.121,-0.32 0.152,-0.531 0.152,-0.969 0.496,0.785 1.18,1.133 2.129,1.133 0.984,0 1.637,-0.379 2.027,-1.211 0.578,0.848 1.27,1.211 2.285,1.211 0.907,0 1.602,-0.363 1.922,-0.996 0.223,-0.457 0.254,-0.652 0.254,-2.074 V 16.09 h -1.48 v 4.262 c 0,1.379 -0.286,1.77 -1.301,1.77 -0.985,0 -1.481,-0.649 -1.481,-1.891 V 16.09 h -1.484 v 4.098 c 0,0.937 -0.031,1.133 -0.168,1.391 -0.195,0.347 -0.586,0.543 -1.102,0.543 -1.027,0 -1.527,-0.633 -1.527,-1.95 V 16.09 h -1.48 v 5.231 c 0,1.242 -0.016,1.422 -0.184,1.953 h 1.438" />
      <path
         inkscape:connector-curvature="0"
         id="path22"
         style="fill:#00adef;fill-opacity:1;fill-rule:nonzero;stroke:none"
         d="m 109.875,26.235 v -3.781 c 0.531,0.652 1.211,0.984 2.043,0.984 0.922,0 1.707,-0.379 2.07,-1.027 0.258,-0.438 0.332,-0.907 0.332,-2.192 V 16.09 h -1.48 v 3.887 c 0,1.602 -0.348,2.145 -1.379,2.145 -1.027,0 -1.586,-0.786 -1.586,-2.223 V 16.09 h -1.48 v 10.145 h 1.48" />
      <path
         inkscape:connector-curvature="0"
         id="path24"
         style="fill:#00adef;fill-opacity:1;fill-rule:nonzero;stroke:none"
         d="m 117.453,19.672 c 0,-1.543 0.742,-2.57 1.828,-2.57 1.074,0 1.817,1.043 1.817,2.57 0,1.528 -0.743,2.586 -1.817,2.586 -1.086,0 -1.828,-1.043 -1.828,-2.586 z m 5.172,0 c 0,-2.207 -1.391,-3.781 -3.344,-3.781 -1.965,0 -3.355,1.574 -3.355,3.781 0,2.207 1.39,3.797 3.355,3.797 1.953,0 3.344,-1.59 3.344,-3.797" />
      <path
         inkscape:connector-curvature="0"
         id="path26"
         style="fill:#00adef;fill-opacity:1;fill-rule:nonzero;stroke:none"
         d="m 124.289,26.235 h 1.512 V 16.09 h -1.512 z" />
      <path
         inkscape:connector-curvature="0"
         id="path28"
         style="fill:#00adef;fill-opacity:1;fill-rule:nonzero;stroke:none"
         d="m 131.426,23.274 -0.016,-1.18 h -1.586 l -0.047,-3.176 c 0,-0.289 -0.015,-0.515 -0.015,-0.562 0,-0.891 0.168,-1.102 0.804,-1.102 0.301,0 0.664,0.075 1.028,0.227 l -0.016,-1.254 c -0.543,-0.215 -0.953,-0.289 -1.5,-0.289 -1.238,0 -1.844,0.648 -1.844,1.996 0,0.059 0.016,0.5 0.032,0.984 l 0.089,3.176 h -1.105 l 0.02,1.18 h 1.132 l 0.047,2.055 h 1.434 l -0.028,-2.055 h 1.571" />
      <path
         inkscape:connector-curvature="0"
         id="path30"
         style="fill:#00adef;fill-opacity:1;fill-rule:nonzero;stroke:none"
         d="m 137.824,23.274 v -1.106 l -3.765,-4.855 h 3.75 V 16.09 h -5.504 v 1.149 l 3.703,4.808 h -3.356 v 1.227 h 5.172" />
      <path
         inkscape:connector-curvature="0"
         id="path32"
         style="fill:#00adef;fill-opacity:1;fill-rule:nonzero;stroke:none"
         d="M 53.164,10.282 V 9.192 L 48.266,1.543 h 4.761 V 0.196 h -6.605 v 1.226 l 4.855,7.543 h -4.461 v 1.317 h 6.348" />
      <path
         inkscape:connector-curvature="0"
         id="path34"
         style="fill:#00adef;fill-opacity:1;fill-rule:nonzero;stroke:none"
         d="m 59.031,4.567 c -0.148,1.207 -0.691,1.812 -1.629,1.812 -0.925,0 -1.484,-0.605 -1.726,-1.812 z M 55.633,3.461 c 0.058,-1.449 0.722,-2.238 1.902,-2.238 0.727,0 1.195,0.289 1.512,0.938 l 1.348,-0.09 C 59.984,0.727 58.957,0 57.488,0 c -2.023,0 -3.355,1.465 -3.355,3.704 0,2.328 1.316,3.871 3.297,3.871 1.906,0 3.113,-1.465 3.113,-3.782 0,-0.058 0,-0.179 -0.012,-0.332 h -4.898" />
      <path
         inkscape:connector-curvature="0"
         id="path36"
         style="fill:#00adef;fill-opacity:1;fill-rule:nonzero;stroke:none"
         d="m 63.434,7.379 c 0.105,-0.316 0.136,-0.5 0.152,-0.984 0.5,0.758 1.226,1.148 2.133,1.148 0.949,0 1.722,-0.406 2.07,-1.101 0.242,-0.469 0.289,-0.785 0.289,-2.117 V 0.196 h -1.484 v 3.887 c 0,1.664 -0.301,2.148 -1.328,2.148 -1.047,0 -1.59,-0.773 -1.59,-2.211 V 0.196 h -1.481 v 4.672 c 0,1.754 0,1.816 -0.195,2.511 h 1.434" />
      <path
         inkscape:connector-curvature="0"
         id="path38"
         style="fill:#00adef;fill-opacity:1;fill-rule:nonzero;stroke:none"
         d="M 73.645,7.379 73.629,6.2 h -1.59 L 71.992,3.024 c 0,-0.289 -0.015,-0.516 -0.015,-0.559 0,-0.894 0.168,-1.105 0.804,-1.105 0.301,0 0.664,0.074 1.028,0.226 L 73.793,0.333 C 73.25,0.122 72.84,0.043 72.297,0.043 c -1.242,0 -1.844,0.653 -1.844,1.997 0,0.062 0.012,0.5 0.027,0.984 L 70.574,6.2 h -1.105 l 0.015,1.179 h 1.133 l 0.047,2.055 h 1.434 L 72.07,7.379 h 1.575" />
      <path
         inkscape:connector-curvature="0"
         id="path40"
         style="fill:#00adef;fill-opacity:1;fill-rule:nonzero;stroke:none"
         d="m 76.578,7.379 c 0.074,-0.347 0.102,-0.726 0.102,-1.136 0,-0.075 0,-0.211 -0.012,-0.375 0.531,1.148 1.148,1.675 1.965,1.675 0.211,0 0.406,-0.043 0.711,-0.148 v -1.5 c -0.406,0.23 -0.696,0.32 -1.043,0.32 -1.028,0 -1.559,-0.937 -1.559,-2.738 V 0.196 h -1.496 v 4.855 c 0,1.633 -0.016,1.676 -0.09,2.328 h 1.422" />
      <path
         inkscape:connector-curvature="0"
         id="path42"
         style="fill:#00adef;fill-opacity:1;fill-rule:nonzero;stroke:none"
         d="M 82.023,7.379 V 3.145 c 0,-1.301 0.379,-1.801 1.375,-1.801 1.012,0 1.543,0.711 1.543,2.086 v 3.949 h 1.481 V 2.403 c 0,-1.649 0,-1.617 0.183,-2.207 H 85.18 c -0.09,0.258 -0.133,0.5 -0.149,0.89 -0.484,-0.753 -1.058,-1.058 -2.011,-1.058 -0.922,0 -1.754,0.441 -2.149,1.152 -0.226,0.406 -0.332,0.996 -0.332,1.918 v 4.281 h 1.484" />
      <path
         inkscape:connector-curvature="0"
         id="path44"
         style="fill:#00adef;fill-opacity:1;fill-rule:nonzero;stroke:none"
         d="m 89.824,7.379 c 0.121,-0.316 0.153,-0.531 0.153,-0.968 0.5,0.785 1.179,1.132 2.132,1.132 0.981,0 1.633,-0.375 2.024,-1.207 0.578,0.844 1.273,1.207 2.285,1.207 0.91,0 1.605,-0.363 1.922,-0.996 0.226,-0.453 0.254,-0.652 0.254,-2.07 V 0.196 h -1.481 v 4.265 c 0,1.375 -0.285,1.77 -1.297,1.77 -0.988,0 -1.484,-0.652 -1.484,-1.891 V 0.196 h -1.484 v 4.097 c 0,0.938 -0.028,1.133 -0.164,1.391 -0.196,0.348 -0.59,0.547 -1.106,0.547 -1.027,0 -1.527,-0.637 -1.527,-1.953 V 0.196 H 88.57 v 5.23 c 0,1.242 -0.015,1.422 -0.183,1.953 h 1.437" />
      <path
         inkscape:connector-curvature="0"
         id="path46"
         style="fill:#00adef;fill-opacity:1;fill-rule:nonzero;stroke:none"
         d="m 105.781,1.481 c 1.133,0 1.555,0.047 1.949,0.227 0.485,0.21 0.77,0.757 0.77,1.453 0,0.711 -0.344,1.254 -0.934,1.48 -0.41,0.152 -0.773,0.184 -1.754,0.184 h -0.968 V 1.481 Z m -0.047,4.598 c 1.68,0 2.301,0.406 2.301,1.496 0,0.574 -0.289,1.043 -0.742,1.242 -0.348,0.133 -0.727,0.18 -1.648,0.18 h -0.801 V 6.079 Z m -0.121,4.203 c 1.27,0 1.844,-0.059 2.407,-0.242 0.968,-0.348 1.558,-1.196 1.558,-2.282 0,-1.152 -0.516,-1.816 -1.664,-2.179 1.496,-0.348 2.207,-1.164 2.207,-2.524 0,-1.226 -0.711,-2.254 -1.785,-2.601 -0.68,-0.211 -1.18,-0.258 -2.934,-0.258 h -2.086 v 10.086 h 2.297" />
      <path
         inkscape:connector-curvature="0"
         id="path48"
         style="fill:#00adef;fill-opacity:1;fill-rule:nonzero;stroke:none"
         d="m 116.168,4.567 c -0.148,1.207 -0.695,1.812 -1.629,1.812 -0.922,0 -1.484,-0.605 -1.727,-1.812 z M 112.77,3.461 c 0.058,-1.449 0.726,-2.238 1.902,-2.238 0.726,0 1.195,0.289 1.516,0.938 l 1.343,-0.09 C 117.121,0.727 116.094,0 114.629,0 c -2.027,0 -3.359,1.465 -3.359,3.704 0,2.328 1.316,3.871 3.296,3.871 1.907,0 3.118,-1.465 3.118,-3.782 0,-0.058 0,-0.179 -0.016,-0.332 h -4.898" />
      <path
         inkscape:connector-curvature="0"
         id="path50"
         style="fill:#00adef;fill-opacity:1;fill-rule:nonzero;stroke:none"
         d="m 120.648,7.379 c 0.075,-0.347 0.106,-0.726 0.106,-1.136 0,-0.075 0,-0.211 -0.016,-0.375 0.532,1.148 1.149,1.675 1.965,1.675 0.211,0 0.41,-0.043 0.711,-0.148 v -1.5 c -0.41,0.23 -0.695,0.32 -1.043,0.32 -1.027,0 -1.559,-0.937 -1.559,-2.738 V 0.196 h -1.496 v 4.855 c 0,1.633 -0.015,1.676 -0.089,2.328 h 1.421" />
      <path
         inkscape:connector-curvature="0"
         id="path52"
         style="fill:#00adef;fill-opacity:1;fill-rule:nonzero;stroke:none"
         d="m 124.625,10.344 h 1.512 V 0.196 h -1.512 z" />
      <path
         inkscape:connector-curvature="0"
         id="path54"
         style="fill:#00adef;fill-opacity:1;fill-rule:nonzero;stroke:none"
         d="M 129.797,7.379 V 0.196 h -1.512 v 7.183 z m 0.183,2.149 c 0,-0.578 -0.363,-0.953 -0.925,-0.953 -0.59,0 -0.95,0.363 -0.95,0.937 0,0.528 0.407,0.938 0.95,0.938 0.547,0 0.925,-0.379 0.925,-0.922" />
      <path
         inkscape:connector-curvature="0"
         id="path56"
         style="fill:#00adef;fill-opacity:1;fill-rule:nonzero;stroke:none"
         d="m 133.188,7.379 c 0.101,-0.316 0.132,-0.5 0.148,-0.984 0.5,0.758 1.226,1.148 2.133,1.148 0.953,0 1.722,-0.406 2.07,-1.101 0.242,-0.469 0.289,-0.785 0.289,-2.117 V 0.196 h -1.484 v 3.887 c 0,1.664 -0.301,2.148 -1.328,2.148 -1.043,0 -1.59,-0.773 -1.59,-2.211 V 0.196 h -1.481 v 4.672 c 0,1.754 0,1.816 -0.199,2.511 h 1.442" />
      <path
         inkscape:connector-curvature="0"
         id="path58"
         style="fill:#135ca1;fill-opacity:1;fill-rule:nonzero;stroke:none"
         d="M 16.273,16.102 V 28.813 H 6.758 V 16.102 H 0 V 47.063 H 6.758 V 34.711 h 9.515 v 12.352 h 6.754 V 16.102 h -6.754" />
      <path
         inkscape:connector-curvature="0"
         id="path60"
         style="fill:#135ca1;fill-opacity:1;fill-rule:nonzero;stroke:none"
         d="m 31.324,22.055 12.832,19.613 v 5.395 H 24.059 V 41.165 H 36.301 L 24.059,22.329 V 16.102 H 53.57 v 5.953 H 31.324" />
      <path
         inkscape:connector-curvature="0"
         id="path62"
         style="fill:#135ca1;fill-opacity:1;fill-rule:nonzero;stroke:none"
         d="m 53.57,22.043 h -0.023 v 0.008 h -6.754 v -5.949 h 6.777 v 5.941" />
      <path
         inkscape:connector-curvature="0"
         id="path64"
         style="fill:#135ca1;fill-opacity:1;fill-rule:nonzero;stroke:none"
         d="m 59.031,34.754 h -5.484 v 6.368 h 5.484 c 2.512,0 3.407,-1.645 3.407,-3.184 0,-1.539 -0.895,-3.184 -3.407,-3.184 z m 6.914,-3.25 -0.738,0.461 0.715,0.489 c 1.223,0.836 3.269,2.707 3.269,5.89 0,5.457 -3.613,8.719 -9.664,8.719 H 46.793 V 23.086 h 6.754 v 5.727 h 5.891 c 2.542,0 3.449,-1.738 3.449,-3.363 0,-1.571 -0.903,-3.407 -3.449,-3.407 h -4.836 v -5.941 h 5.601 c 5.824,0 9.438,3.41 9.438,8.898 0,4.208 -2.403,5.704 -3.696,6.504" />
    </g>
  </g>
</svg>
